<svg version="1.1" xmlns="http://www.w3.org/2000/svg" xmlns:xlink="http://www.w3.org/1999/xlink" x="0px" y="0px" enable-background="new 0 0 500 404.4" xml:space="preserve">
	<symbol id="dc_black_logo" viewBox="0 0 350 79.8">
		<path d="M10.8,80.3H0v-3H10.8c5.1,0,9.2-5,9.2-11.2s-4.1-11.3-9.2-11.3H0V51.9H10.8c6.7,0,12.2,6.3,12.2,14.2S17.5,80.3,10.8,80.3Zm230.7-3H230.8c-5.1,0-9.2-5-9.2-11.2s4.1-11.3,9.2-11.3h10.7V51.9H230.8c-6.7,0-12.2,6.3-12.2,14.2s5.5,14.2,12.2,14.2h10.7Zm-191.9,0H30c-.2,0-.3-.1-.3-.2V71.4l7.7-2.7h.2a3.1,3.1,0,0,0,1.5-2.5,2.8,2.8,0,0,0-1.5-2.5l-7.9-2.8V55a.4.4,0,0,1,.3-.2H49.6V51.9H30A3.2,3.2,0,0,0,26.7,55v6a2.8,2.8,0,0,0,1.9,2.6l7.2,2.5-7.2,2.6a2.8,2.8,0,0,0-1.9,2.5v5.9A3.2,3.2,0,0,0,30,80.3H49.6Zm198.6-6.4,6.2-2.5.3-.2a3,3,0,0,0,1.2-2.4,2.9,2.9,0,0,0-1.2-2.3h-.2l-6.3-2.5V52h-2.9v9.1a2.6,2.6,0,0,0,1.6,2.5l5.8,2.2-5.8,2.4a2.6,2.6,0,0,0-1.6,2.5v9.6h2.9Zm19.9-.2a2.6,2.6,0,0,0-1.6-2.5l-5.8-2.4,5.7-2.2a2.7,2.7,0,0,0,1.7-2.5V52h-3v8.9l-6.3,2.5h-.1a2.8,2.8,0,0,0-1.3,2.3,2.8,2.8,0,0,0,1.3,2.4l6.4,2.7v9.4h3Zm26.5.5a2.4,2.4,0,0,0-1.6-2.4l-5.6-2.2,5.5-2.1a2.6,2.6,0,0,0,1.7-2.4V54.8a2.7,2.7,0,0,0-2.8-2.8H274.6a2.8,2.8,0,0,0-2.8,2.8v7.3a2.6,2.6,0,0,0,1.7,2.4l5.5,2.1-5.5,2.2a2.5,2.5,0,0,0-1.7,2.4v9.1h3V71.4l6.1-2.4h.3a2.8,2.8,0,0,0,1.3-2.3,2.8,2.8,0,0,0-1.3-2.4l-6.4-2.4V54.9h16.8v6.9l-6,2.3h-.3a2.8,2.8,0,0,0-1.3,2.4,2.8,2.8,0,0,0,1.3,2.3l6.3,2.5v8.9h3Zm-218.4,6V67.9a3.1,3.1,0,0,0-3.1-3.1H56.3V55.4H74.7v-3H56.5a3.1,3.1,0,0,0-3.1,3.1v9.3a3.1,3.1,0,0,0,3.1,3.1H73.1c.1,0,.1,0,.1.1v9.3H54.8v3H73.1A3.1,3.1,0,0,0,76.2,77.2ZM82.9,52h-3V80.3h3Zm26.6,15.9H98.1v3h8.4v6.4H89.6V54.8H108V51.9H86.6V80.3h22.9Zm211.7,9.4H301.3V52h-2.9V80.3h22.8ZM344.3,52,327.9,62.1V52h-3V63.2A2.1,2.1,0,0,0,326,65a3.2,3.2,0,0,0,1.4.3,2.9,2.9,0,0,0,1.6-.4L350,52ZM327.9,69.4l16.3,10.9h5.3L329,66.5a3,3,0,0,0-2.9-.1,2.2,2.2,0,0,0-1.2,1.8v12h3Zm-113-16V76.5c0,2.1-2.8,3.8-6.2,3.8H119.4c-3.4,0-6.2-1.7-6.2-3.8V53.4a1.1,1.1,0,0,1,1.2-1.1h1.5V37.1a5,5,0,0,0,.9-2.9,4.9,4.9,0,0,0-.9-2.8V5A4.5,4.5,0,0,1,120.4.5h2.9a4.5,4.5,0,0,1,1.6.3V1a4.3,4.3,0,0,0,2.8,4.2V52.3H130V20.6a4.5,4.5,0,0,1,4.5-4.5h2.8a4.5,4.5,0,0,1,4.5,4.4,7.1,7.1,0,0,0-.6,3.1,6.7,6.7,0,0,0,.6,3V52.3H144V33.2a2.7,2.7,0,0,1,2.7-2.7h6.6a2.7,2.7,0,0,1,2.6,2.7V52.3h2.2V47.6a2.7,2.7,0,0,1,2.7-2.6h6.5a2.7,2.7,0,0,1,2.7,2.6v4.7h30.4V37.9c.6-.7,1-2.7,1-5s-.4-4.2-1-5V5A4.5,4.5,0,0,1,204.8.5h2.9A4.5,4.5,0,0,1,212.2,5v7a7.1,7.1,0,0,0-1.1,4.3,6.8,6.8,0,0,0,1.1,4.2V52.3h1.5A1.1,1.1,0,0,1,214.9,53.4ZM130,55.9a5.2,5.2,0,0,0-2.3.8V76a10.2,10.2,0,0,0,2.3.8Zm14-.3h-2.2v6.3l2.2,1.2Zm14.1,0h-2.2V69.2l2.2,1.1Zm42.3,1.1a9.1,9.1,0,0,0-4.3-1.1H170V76.5l.8.4h1.4V61.3a2.6,2.6,0,0,1,2.6-2.6h6.6a2.5,2.5,0,0,1,2.6,2.6V77h2.3V68.7a2.6,2.6,0,0,1,2.6-2.6h6.6a2.6,2.6,0,0,1,2.6,2.6v8.1a6.9,6.9,0,0,0,2.3-.8Z"/>
		</symbol>

	<symbol id="dc_colour_logo" viewBox="0 0 346 76.91">
  <path d="M93.11,51.93H82.9V49.11H93.11c4.85,0,8.79-4.78,8.79-10.66S98,27.8,93.11,27.8H82.9V25H93.11c6.4,0,11.61,6.05,11.61,13.48S99.51,51.93,93.11,51.93Z" fill="#333"/><path d="M130.79,51.93H112.2a3.07,3.07,0,0,1-3.15-3V43.37a2.62,2.62,0,0,1,1.76-2.43l6.89-2.48-6.85-2.33a2.62,2.62,0,0,1-1.8-2.45V28a3.07,3.07,0,0,1,3.15-3h18.59V27.8H112.2c-.22,0-.32.12-.32.15v5.54l7.52,2.6a2.72,2.72,0,0,1,0,4.73l-.24.12-7.28,2.62V49s.1.16.32.16h18.59Z" fill="#333"/><path d="M153.83,51.93H136.52V49.11h17.31A.16.16,0,0,0,154,49V40.16a.14.14,0,0,0-.14-.08H138.08a2.93,2.93,0,0,1-3-2.89V28.31a2.94,2.94,0,0,1,3-2.9h17.3v2.83h-17.3c-.1,0-.14.05-.14.07v8.88s0,.07.14.07h15.75a2.94,2.94,0,0,1,3,2.9V49A2.93,2.93,0,0,1,153.83,51.93Z" fill="#333"/><path d="M291.05,51.93H273.74V49.11h17.31a.16.16,0,0,0,.14-.07V40.16a.14.14,0,0,0-.14-.08H275.3a2.93,2.93,0,0,1-3-2.89V28.31a2.94,2.94,0,0,1,3-2.9h17.3v2.83H275.3c-.1,0-.14.05-.14.07v8.88s0,.07.14.07h15.75a2.93,2.93,0,0,1,3,2.9V49A2.93,2.93,0,0,1,291.05,51.93Z" fill="#333"/><polygon points="215.97 25.14 213.15 25.14 213.15 47.13 197.18 25.13 197.16 25.14 197.16 25.14 194.34 25.14 194.34 51.93 197.16 51.93 197.16 29.91 213.14 51.93 213.15 51.93 215.97 51.93 215.97 25.14" fill="#333"/><path d="M171.1,49s.11.16.32.16h15.76V43.22h-5.69a2.83,2.83,0,0,1,2.83-2.82H190V51.93H171.42a3.07,3.07,0,0,1-3.15-3V28a3.07,3.07,0,0,1,3.15-3H190v2.82H171.42a.32.32,0,0,0-.32.17Z" fill="#333"/><polygon points="320.04 25.24 320.04 28.07 310.6 28.07 310.6 51.93 307.78 51.93 307.78 28.07 298.34 28.07 298.34 25.24 320.04 25.24" fill="#333"/><path d="M346,51.93h-2.82V43.54l-6.06-2.41a2.62,2.62,0,0,1,0-4.42l.27-.14,5.79-2.15V27.89h-16v6.53l6.06,2.29a2.64,2.64,0,0,1,0,4.42l-.26.13-5.8,2.28v8.39h-2.83V43.29A2.47,2.47,0,0,1,325.93,41l5.28-2.07L326,37a2.49,2.49,0,0,1-1.61-2.31V27.74A2.66,2.66,0,0,1,327,25.07h16.36A2.66,2.66,0,0,1,346,27.74v6.94A2.49,2.49,0,0,1,344.39,37l-5.24,1.94L344.43,41A2.45,2.45,0,0,1,346,43.29Z" fill="#333"/><path d="M223.64,42.05l-.15-.59c-.05-.19-.09-.38-.13-.57s-.1-.58-.13-.88c0-.13,0-.26,0-.38a10.37,10.37,0,0,1-.06-1.12v-.08a10.37,10.37,0,0,1,.06-1.12c0-.13,0-.25,0-.38,0-.3.08-.59.13-.88s.08-.38.13-.57l.15-.6c.06-.17.11-.35.17-.52s.14-.38.21-.57a10.58,10.58,0,0,1,.85-1.68,9.68,9.68,0,0,1,2.28-2.59,7.55,7.55,0,0,1,4.72-1.69H242V25H231.87l-.46,0v0a10.19,10.19,0,0,0-3.72.88,11,11,0,0,0-2.43,1.51l-.39.34a13.26,13.26,0,0,0-2.71,3.43l-.19.35c0,.07-.07.13-.1.19l0,0a14.19,14.19,0,0,0-1,2.78h0a14.75,14.75,0,0,0-.43,2.42,1.64,1.64,0,0,0,0,.22q-.06.64-.06,1.29h0c0,.43,0,.86.06,1.28a1.64,1.64,0,0,0,0,.23,14.75,14.75,0,0,0,.43,2.42h0a14.19,14.19,0,0,0,1,2.78l0,0c0,.06.07.12.1.19l.19.34a13.14,13.14,0,0,0,2.71,3.44l.39.34a11,11,0,0,0,2.43,1.51,10.19,10.19,0,0,0,3.72.88v0l.46,0H242V49.11H231.87a7.55,7.55,0,0,1-4.72-1.69,9.68,9.68,0,0,1-2.28-2.59,10.58,10.58,0,0,1-.85-1.68c-.07-.19-.15-.38-.21-.57Z" fill="#333"/><path d="M265.18,25.07v13h0v11h-16v-11h0v-13h-2.82V49.26A2.65,2.65,0,0,0,249,51.93h16.36A2.65,2.65,0,0,0,268,49.26V25.07Z" fill="#333"/><rect x="161.12" y="25.15" width="2.82" height="26.79" fill="#333"/><path d="M51.3,36.78a26.67,26.67,0,0,1,2.29-4.6l-14.22-17V28.53a3.52,3.52,0,1,1-1.85,0V15.17l-14.22,17a27.27,27.27,0,0,1,2.3,4.63c-3.26,0-6.58.13-9.91.25A65.85,65.85,0,0,1,23,11.63,169.41,169.41,0,0,0,54.09,12,66.42,66.42,0,0,1,61.2,37S57.38,36.86,51.3,36.78Z" fill="#0000c0"/><path d="M55.23,65a178.78,178.78,0,0,0-33.35.4A52.66,52.66,0,0,1,15.6,39.86s4.34.11,11.14.2a45.61,45.61,0,0,1,1.84,10.45A1.44,1.44,0,0,0,30,51.86H46.87a1.44,1.44,0,0,0,1.44-1.35,45.48,45.48,0,0,1,1.83-10.4c3.65,0,7.41-.09,11.16-.17A54.33,54.33,0,0,1,55.23,65Z" fill="#0000c0"/><path d="M64.57,37.05s0-11.65-7.64-25.31c0,0,4.42-.36,8.17-1,0,0,11.08,9.12,11.79,26.68C76.89,37.42,67.94,37.13,64.57,37.05Z" fill="#001ee6"/><path d="M20.19,11.32s-7,12-7.87,25.81c0,0-6.15.19-12.31.42A37.75,37.75,0,0,1,12.34,10.23S16,10.87,20.19,11.32Z" fill="#001ee6"/><path d="M52.46,8.9A233.26,233.26,0,0,1,24.6,8.59a82.29,82.29,0,0,1,4.58-7.46s9.35-2.55,18.54,0C47.72,1.13,50,4.49,52.46,8.9Z" fill="#0000f8"/><path d="M65.1,66.17A38.1,38.1,0,0,0,76.89,39.5s-6.11.36-12.23.36a52.42,52.42,0,0,1-6.54,25.42S61.88,65.62,65.1,66.17Z" fill="#001ee6"/><path d="M12.24,39.78S6,39.62,0,39.36A37.74,37.74,0,0,0,12.34,66.68s3.24-.54,6.68-1A53.06,53.06,0,0,1,12.24,39.78Z" fill="#001ee6"/><path d="M23.49,68.4a75,75,0,0,0,4.66,7.11s10.31,3.14,20.6,0a76.33,76.33,0,0,0,4.84-7.44,248.6,248.6,0,0,0-30.1.33Z" fill="#0000f8"/><path d="M20.74,68.6q-2.76.23-5.51.51a38.43,38.43,0,0,0,9.69,5.35A62.22,62.22,0,0,1,20.74,68.6Z" fill="#003cff"/><path d="M60.53,68.55l-1.76-.15L57,68.28l-.62,0A63.36,63.36,0,0,1,52,74.46,38.64,38.64,0,0,0,62.21,68.7Z" fill="#003cff"/><path d="M55.2,8.75,57,8.63l1.76-.11,1.76-.16,1.68-.14A38.57,38.57,0,0,0,50.56,2,79.09,79.09,0,0,1,55.2,8.75Z" fill="#003cff"/><path d="M21.9,8.41Q24,5.06,26.34,2A38.25,38.25,0,0,0,15.23,7.81C17.45,8,19.68,8.24,21.9,8.41Z" fill="#003cff"/>		
    </symbol>

	<symbol id="dc_logo" viewBox="0 0 346 76.91">
    <path d="M93.11,51.93H82.9V49.11H93.11c4.85,0,8.79-4.78,8.79-10.66S98,27.8,93.11,27.8H82.9V25H93.11c6.4,0,11.61,6.05,11.61,13.48S99.51,51.93,93.11,51.93Zm37.68-2.82H112.2c-.22,0-.32-.12-.32-.16V43.56l7.28-2.62.24-.12a2.72,2.72,0,0,0,0-4.73l-7.52-2.6V28s.1-.15.32-.15h18.59V25H112.2a3.07,3.07,0,0,0-3.15,3v5.73a2.62,2.62,0,0,0,1.8,2.45l6.85,2.33-6.89,2.48a2.62,2.62,0,0,0-1.76,2.43V49a3.07,3.07,0,0,0,3.15,3h18.59Zm26-.07V40.16a2.94,2.94,0,0,0-3-2.9H138.08c-.1,0-.14,0-.14-.07V28.31s0-.07.14-.07h17.3V25.41h-17.3a2.94,2.94,0,0,0-3,2.9v8.88a2.93,2.93,0,0,0,3,2.89h15.75a.14.14,0,0,1,.14.08V49a.16.16,0,0,1-.14.07H136.52v2.82h17.31A2.93,2.93,0,0,0,156.8,49ZM294,49V40.16a2.93,2.93,0,0,0-3-2.9H275.3c-.1,0-.14,0-.14-.07V28.31s0-.07.14-.07h17.3V25.41H275.3a2.94,2.94,0,0,0-3,2.9v8.88a2.93,2.93,0,0,0,3,2.89h15.75a.14.14,0,0,1,.14.08V49a.16.16,0,0,1-.14.07H273.74v2.82h17.31A2.93,2.93,0,0,0,294,49Zm-78-23.9h-2.82v22l-16-22,0,0h-2.82V51.93h2.82v-22l16,22H216ZM171.1,28a.32.32,0,0,1,.32-.17H190V25H171.42a3.07,3.07,0,0,0-3.15,3V49a3.07,3.07,0,0,0,3.15,3H190V40.4h-5.69a2.83,2.83,0,0,0-2.83,2.82h5.69v5.89H171.42c-.21,0-.32-.12-.32-.16Zm127.24-2.72v2.83h9.44V51.93h2.82V28.07H320V25.24ZM346,43.29A2.45,2.45,0,0,0,344.43,41l-5.28-2.07L344.39,37A2.49,2.49,0,0,0,346,34.68V27.74a2.66,2.66,0,0,0-2.64-2.67H327a2.66,2.66,0,0,0-2.64,2.67v6.94A2.49,2.49,0,0,0,326,37l5.24,1.94L325.93,41a2.47,2.47,0,0,0-1.57,2.29v8.64h2.83V43.54l5.8-2.28.26-.13a2.64,2.64,0,0,0,0-4.42l-6.06-2.29V27.89h16v6.53l-5.79,2.15-.27.14a2.62,2.62,0,0,0,0,4.42l6.06,2.41v8.39H346ZM223.64,42.05l-.15-.59c-.05-.19-.09-.38-.13-.57s-.1-.58-.13-.88c0-.13,0-.26,0-.38a10.37,10.37,0,0,1-.06-1.12v-.08a10.37,10.37,0,0,1,.06-1.12c0-.13,0-.25,0-.38,0-.3.08-.59.13-.88s.08-.38.13-.57l.15-.6c.06-.17.11-.35.17-.52s.14-.38.21-.57a10.58,10.58,0,0,1,.85-1.68,9.68,9.68,0,0,1,2.28-2.59,7.55,7.55,0,0,1,4.72-1.69H242V25H231.87l-.46,0v0a10.19,10.19,0,0,0-3.72.88,11,11,0,0,0-2.43,1.51l-.39.34a13.26,13.26,0,0,0-2.71,3.43l-.19.35c0,.07-.07.13-.1.19l0,0a14.19,14.19,0,0,0-1,2.78h0a14.75,14.75,0,0,0-.43,2.42,1.64,1.64,0,0,0,0,.22q-.06.64-.06,1.29h0c0,.43,0,.86.06,1.28a1.64,1.64,0,0,0,0,.23,14.75,14.75,0,0,0,.43,2.42h0a14.19,14.19,0,0,0,1,2.78l0,0c0,.06.07.12.1.19l.19.34a13.14,13.14,0,0,0,2.71,3.44l.39.34a11,11,0,0,0,2.43,1.51,10.19,10.19,0,0,0,3.72.88v0l.46,0H242V49.11H231.87a7.55,7.55,0,0,1-4.72-1.69,9.68,9.68,0,0,1-2.28-2.59,10.58,10.58,0,0,1-.85-1.68c-.07-.19-.15-.38-.21-.57Zm41.54-17v13h0v11h-16v-11h0v-13h-2.82V49.26A2.65,2.65,0,0,0,249,51.93h16.36A2.65,2.65,0,0,0,268,49.26V25.07ZM164,25.15h-2.83V51.93H164ZM61.2,37a66.42,66.42,0,0,0-7.11-25A169.41,169.41,0,0,1,23,11.63a65.85,65.85,0,0,0-7.31,25.43c3.33-.12,6.65-.2,9.91-.25a27.27,27.27,0,0,0-2.3-4.63l14.22-17V28.53a3.52,3.52,0,1,0,1.85,0V15.17l14.22,17a26.67,26.67,0,0,0-2.29,4.6C57.38,36.86,61.2,37,61.2,37Zm.1,3c-3.75.08-7.51.14-11.16.17a45.48,45.48,0,0,0-1.83,10.4,1.44,1.44,0,0,1-1.44,1.35H30a1.44,1.44,0,0,1-1.44-1.35,45.61,45.61,0,0,0-1.84-10.45c-6.8-.09-11.14-.2-11.14-.2a52.66,52.66,0,0,0,6.28,25.55A178.78,178.78,0,0,1,55.23,65,54.33,54.33,0,0,0,61.3,39.94Zm15.59-2.52C76.18,19.86,65.1,10.74,65.1,10.74c-3.75.64-8.17,1-8.17,1,7.59,13.66,7.64,25.31,7.64,25.31C67.94,37.13,76.89,37.42,76.89,37.42ZM12.34,10.23A37.75,37.75,0,0,0,0,37.55c6.16-.23,12.31-.42,12.31-.42.82-13.8,7.87-25.81,7.87-25.81C16,10.87,12.34,10.23,12.34,10.23Zm35.38-9.1c-9.19-2.55-18.54,0-18.54,0A82.29,82.29,0,0,0,24.6,8.59a233.26,233.26,0,0,0,27.86.31C50,4.49,47.72,1.13,47.72,1.13Zm17.38,65A38.1,38.1,0,0,0,76.89,39.5s-6.11.36-12.23.36a52.42,52.42,0,0,1-6.54,25.42S61.88,65.62,65.1,66.17ZM12.24,39.78S6,39.62,0,39.36A37.74,37.74,0,0,0,12.34,66.68s3.24-.54,6.68-1A53.06,53.06,0,0,1,12.24,39.78ZM23.49,68.4a75,75,0,0,0,4.66,7.11s10.31,3.14,20.6,0a76.33,76.33,0,0,0,4.84-7.44,248.6,248.6,0,0,0-30.1.33Zm-2.75.2q-2.76.23-5.51.51a38.43,38.43,0,0,0,9.69,5.35A62.22,62.22,0,0,1,20.74,68.6Zm39.79,0-1.76-.15L57,68.28l-.62,0A63.36,63.36,0,0,1,52,74.46,38.64,38.64,0,0,0,62.21,68.7ZM55.2,8.75,57,8.63l1.76-.11,1.76-.16,1.68-.14A38.57,38.57,0,0,0,50.56,2,79.09,79.09,0,0,1,55.2,8.75ZM21.9,8.41Q24,5.06,26.34,2A38.25,38.25,0,0,0,15.23,7.81C17.45,8,19.68,8.24,21.9,8.41Z" transform="translate(0)"/>    
    </symbol>

	<symbol id="dc_logo_sq" viewBox="0 0 223.47 195.39">
    <path d="M8.67,195.39H0V193H8.67c4.12,0,7.47-4.06,7.47-9.05s-3.35-9.05-7.47-9.05H0v-2.4H8.67c5.44,0,9.87,5.14,9.87,11.45S14.11,195.39,8.67,195.39Zm32-2.4H24.89c-.19,0-.28-.1-.28-.13v-4.58l6.19-2.23L31,186a2.31,2.31,0,0,0,0-4l-6.39-2.2V175s.09-.14.28-.14H40.67v-2.4H24.89A2.61,2.61,0,0,0,22.21,175v4.86A2.23,2.23,0,0,0,23.75,182l5.81,2-5.85,2.11a2.21,2.21,0,0,0-1.5,2.06v4.74a2.61,2.61,0,0,0,2.68,2.53H40.67Zm22.1-.06v-7.54a2.5,2.5,0,0,0-2.52-2.46H46.87a.13.13,0,0,1-.12-.06v-7.54s0-.07.12-.07h14.7v-2.39H46.87a2.49,2.49,0,0,0-2.52,2.46v7.54a2.5,2.5,0,0,0,2.52,2.46H60.25a.13.13,0,0,1,.12.06v7.54s0,.06-.12.06H45.55v2.4h14.7A2.49,2.49,0,0,0,62.77,192.93Zm116.55,0v-7.54a2.5,2.5,0,0,0-2.52-2.46H163.42a.13.13,0,0,1-.12-.06v-7.54s0-.07.12-.07h14.7v-2.39h-14.7a2.49,2.49,0,0,0-2.52,2.46v7.54a2.5,2.5,0,0,0,2.52,2.46H176.8a.13.13,0,0,1,.12.06v7.54s0,.06-.12.06H162.1v2.4h14.7A2.49,2.49,0,0,0,179.32,192.93ZM113,172.64h-2.4v18.67L97.07,172.63H94.65v22.75h2.4v-18.7l13.58,18.7H113ZM74.92,175a.27.27,0,0,1,.27-.14H91v-2.4H75.19A2.61,2.61,0,0,0,72.52,175v17.83a2.6,2.6,0,0,0,2.67,2.53H91v-9.8H86.14a2.41,2.41,0,0,0-2.4,2.4h4.84v5H75.19c-.18,0-.27-.1-.27-.13ZM183,172.72v2.4h8v20.27h2.4V175.12h8v-2.4Zm40.48,15.34a2.08,2.08,0,0,0-1.33-1.95l-4.48-1.76,4.45-1.65a2.12,2.12,0,0,0,1.36-2v-5.89a2.26,2.26,0,0,0-2.24-2.28H207.34a2.26,2.26,0,0,0-2.24,2.28v5.89a2.11,2.11,0,0,0,1.36,2l4.45,1.65-4.48,1.76a2.08,2.08,0,0,0-1.33,1.95v7.33h2.39v-7.12l4.94-1.94.21-.11a2.23,2.23,0,0,0,0-3.76l-5.15-1.94V175h13.59v5.55l-4.92,1.82-.23.12a2.24,2.24,0,0,0,0,3.76l5.15,2.05v7.12h2.39ZM119.55,187c0-.16-.1-.33-.14-.5s-.07-.32-.1-.48-.09-.5-.12-.75l0-.33c0-.31,0-.63,0-.95v-.07c0-.32,0-.63,0-.95l0-.32q0-.37.12-.75c0-.16.07-.32.1-.48s.09-.34.14-.51.09-.29.14-.44.12-.32.18-.48a8.8,8.8,0,0,1,.72-1.44,8.41,8.41,0,0,1,1.94-2.2,6.42,6.42,0,0,1,4-1.43h8.63v-2.4h-8.63l-.4,0v0a8.71,8.71,0,0,0-3.16.75,9.24,9.24,0,0,0-2.06,1.29,4.28,4.28,0,0,0-.33.29,10.8,10.8,0,0,0-2.3,2.91c-.06.1-.11.2-.16.3a.83.83,0,0,0-.09.16s0,0,0,0a13,13,0,0,0-.87,2.36h0a12.56,12.56,0,0,0-.37,2c0,.07,0,.13,0,.2,0,.36-.05.72-.05,1.09h0c0,.37,0,.74.05,1.1,0,.06,0,.13,0,.19a12.37,12.37,0,0,0,.37,2.05h0a13,13,0,0,0,.87,2.36l0,0c0,.05.06.1.09.16l.16.29a10.85,10.85,0,0,0,2.3,2.92l.33.29a9.57,9.57,0,0,0,2.06,1.28,8.51,8.51,0,0,0,3.16.75v0l.4,0h8.63V193h-8.63a6.43,6.43,0,0,1-4-1.44,8.41,8.41,0,0,1-1.94-2.2,8.7,8.7,0,0,1-.72-1.43c-.06-.16-.13-.32-.18-.49S119.59,187.15,119.55,187Zm35.28-14.43v11h0V193H141.25v-9.39h0v-11h-2.39v20.55a2.26,2.26,0,0,0,2.24,2.27H155a2.26,2.26,0,0,0,2.25-2.27V172.57Zm-86,.07h-2.4v22.75h2.4Zm91.77-93.25c-1.8-29.14-15.28-53.62-15.28-53.62C111.75,28.88,78.58,25,78.58,25a141.46,141.46,0,0,0-15.7,54.6c7.14-.24,14.28-.41,21.28-.53a57.41,57.41,0,0,0-5-9.93l30.53-36.53V61.26a7.54,7.54,0,0,0,2.4,14.8,7.54,7.54,0,0,0,1.59-14.8V32.57L144.26,69.1A56,56,0,0,0,139.35,79C152.4,79.14,160.61,79.39,160.61,79.39Zm-12.84,60.2s-36.15-3.42-71.6.84c0,0-14.28-24.15-13.49-54.85,0,0,9.33.24,23.92.43a97.47,97.47,0,0,1,4,22.43,3.1,3.1,0,0,0,3.11,2.92h36.16a3.11,3.11,0,0,0,3.11-2.92,96.7,96.7,0,0,1,3.91-22.31c7.84-.08,15.91-.2,24-.38C160.82,85.75,162.14,111.67,147.77,139.59Zm20.06-60s-.1-25-16.39-54.34c0,0,9.48-.79,17.54-2.16,0,0,23.78,19.58,25.3,57.28C194.28,80.34,175.06,79.72,167.83,79.56ZM72.55,24.31S57.42,50.09,55.65,79.73c0,0-13.21.4-26.44.9,0,0-1.59-32.63,26.48-58.67C55.69,22,63.48,23.34,72.55,24.31Zm69.29-5.21A499.83,499.83,0,0,1,82,18.45a180.65,180.65,0,0,1,9.82-16s20.09-5.47,39.82,0C131.66,2.43,136.61,9.65,141.84,19.1ZM154,140.17c15.38-27.84,14-54.59,14-54.59,13.13,0,26.25-.77,26.25-.77-1.37,37.31-25.3,57.27-25.3,57.27C162.07,140.88,154,140.17,154,140.17Zm-84,1c-7.38.87-14.34,2-14.34,2-28-25.79-26.48-58.66-26.48-58.66,12.95.55,26.26.89,26.26.89C54.85,116.28,70,141.14,70,141.14Zm9.61,5.72a535.72,535.72,0,0,1,64.62-.71,165.52,165.52,0,0,1-10.4,16c-22.08,6.73-44.22,0-44.22,0a158.7,158.7,0,0,1-10-15.28Zm3,13a82.52,82.52,0,0,1-20.8-11.49q5.91-.6,11.82-1.08A138.35,138.35,0,0,0,82.69,159.87Zm80.07-12.37a82.67,82.67,0,0,1-21.94,12.37,137.23,137.23,0,0,0,9.45-13.34l1.33.08,3.78.25,3.77.32Zm-25-143.31a82.46,82.46,0,0,1,25,13.46l-3.61.31-3.77.33-3.78.24-3.88.25A171.41,171.41,0,0,0,137.75,4.19ZM61.88,16.77A82.35,82.35,0,0,1,85.74,4.19c-3.38,4.46-6.57,9.08-9.51,13.86C71.44,17.69,66.66,17.25,61.88,16.77Z"/>    
    </symbol>
  
  <symbol id="adobe_illustrator" viewBox="0 0 500 500">
    <path d="M0,0V500H500V0ZM477,478H21V22H477ZM193.39,280.75l-18.21,51.94H151.75l59.6-165.13h27.32l59.86,165.13H274.32l-18.73-51.94Zm57.51-16.66-17.17-47.53c-3.91-10.78-6.51-20.58-9.11-30.14h-.52c-2.6,9.8-5.47,19.85-8.85,29.89l-17.17,47.78Zm97.34-83.3c.26,7.35-5.47,13.23-14.58,13.23-8.06,0-13.79-5.88-13.79-13.23,0-7.6,6-13.48,14.31-13.48C342.77,167.31,348.24,173.19,348.24,180.79Zm-25.51,151.9V214.11h22.91V332.69Z" transform="translate(0)"/>    
    </symbol>

  <symbol id="adobe_photoshop" viewBox="0 0 500 500">
    <path d="M0,0V500H500V0ZM477,478H21V22H477ZM153.22,168.78a247.75,247.75,0,0,1,40.92-3.18c21.07,0,36.5,4.9,46.3,13.72,9.07,7.84,14.46,19.84,14.46,34.54,0,14.95-4.41,26.71-12.74,35.28-11.27,12-29.65,18.13-50.47,18.13-6.37,0-12.25-.24-17.15-1.47V332H153.22Zm21.32,79.63c4.65,1.22,10.53,1.71,17.64,1.71,25.72,0,41.4-12.49,41.4-35.28,0-21.8-15.43-32.34-39-32.34-9.31,0-16.42.74-20.09,1.72Zm100,61.49c6.37,4.17,17.64,8.58,28.42,8.58,15.68,0,23-7.84,23-17.64,0-10.29-6.12-15.93-22.05-21.81-21.31-7.59-31.36-19.35-31.36-33.56,0-19.11,15.44-34.79,40.92-34.79,12,0,22.54,3.43,29.15,7.35l-5.39,15.68A46.13,46.13,0,0,0,313,226.85c-12.74,0-19.85,7.35-19.85,16.17,0,9.8,7.11,14.21,22.54,20.09,20.58,7.84,31.12,18.13,31.12,35.77,0,20.82-16.17,35.52-44.35,35.52-13,0-25-3.18-33.32-8.08Z"/>    
    </symbol>

  <symbol id="html5" viewBox="0 0 450.62 500.54">
    <path d="M223.5,500.54,32.28,436.93-1.81,0H448.81L414.72,436.93Zm-173-77.83,173,57.56,173-57.56L428,19.23H19ZM354.59,161.55l5-63.74H87.44l12.32,158.1H295.22l-4.7,60.27-67,22.3-67-22.3-1-13.07h-52l4.74,60.74L223.5,402.21l115.31-38.36,12.1-155.12H148.09l-3.68-47.18Z" transform="translate(1.81)"/>    
    </symbol>

  <symbol id="pug" viewBox="0 0 461.2 309.62">
    <path d="M477,229.54c-10.07,7-14,20.18-16.18,31.57-3,16-8.86,31.36-21.69,42.11-1,.86-20.57,13.36-21.31,11.28,0,0-.12-.32-.32-.89,5.91-15.22,10.65-38.85,4-70.61-12.38-59.4-52.19-136.43-79.67-140.88l0-.12c-.16-.42,32.58-2.21,36.32-2.12,11.3.27,23.68,1.57,33.39,7.87,7.64,5,14.33,11.75,20.27,18.59,22.52,25.95,38.57,59.62,48.8,92.7A9.41,9.41,0,0,1,477,229.54ZM78.5,243c12.5-60,53-138,80.5-141,.15-.42-32.58-2.21-36.32-2.12-11.3.27-23.68,1.57-33.4,7.87C81.64,112.7,75,119.5,69,126.34,46.49,152.29,30.45,186,20.21,219a9.42,9.42,0,0,0,3.6,10.5c10.08,7,14,20.18,16.18,31.57,3,16,8.86,31.36,21.69,42.11,1,.84,19.84,12.89,21.25,11.37C76.83,299.42,71.74,275.46,78.5,243ZM358,283.5s-30.45-45.39-68.47-60.38c-5.1-13.39-20.91-15.82-39.53-15.82s-34.18,2.41-39.25,15.71C172.6,237.89,142,283.5,142,283.5c-7.65,31,9.13,73.91,18.8,94.91v0l.5,1.07.06.12c.16.34.31.68.47,1l0,.09c.82,1.73,1.56,3.28,2.22,4.61l.06.11.31.64a2.12,2.12,0,0,1,.11.21l.28.56c0,.07.07.13.1.2l.27.53a1.09,1.09,0,0,0,.08.15c.08.17.17.34.25.5l0,.08.66,1.28.1.18.11.21.1.2a1.09,1.09,0,0,1,.08.15l.1.18a.41.41,0,0,0,.05.09,1,1,0,0,0,.08.15l0,.07.09.16c19,13.5,83,18.5,83,18.5s64-5,83-18.5l.09-.16,0-.07a1,1,0,0,0,.08-.15.41.41,0,0,0,.05-.09l.1-.18a1.09,1.09,0,0,1,.08-.15c0-.06.07-.13.1-.2l.11-.21.1-.18.66-1.28,0-.08c.08-.16.17-.33.25-.5a1.09,1.09,0,0,0,.08-.15l.27-.53c0-.07.07-.13.1-.2s.18-.37.28-.56a2.12,2.12,0,0,1,.11-.21l.31-.64.06-.11c.66-1.33,1.4-2.88,2.22-4.61l0-.09c.16-.33.31-.67.47-1l.06-.12.5-1.07v0C348.87,357.41,365.65,314.48,358,283.5Zm-205.76-86a26.24,26.24,0,1,0,26.24,26.24A26.24,26.24,0,0,0,152.24,197.5Zm195.5,0A26.24,26.24,0,1,0,374,223.74,26.24,26.24,0,0,0,347.74,197.5Z" transform="translate(-19.79 -99.88)"/>    
    </symbol>

  <symbol id="css" viewBox="0 0 447 496.36">
    <path d="M223.5,498.46,33.8,435.35,0,2.1H447L413.2,435.35ZM52.69,420.58,223.5,477.4l170.81-56.82L425.4,22.09H21.6ZM381,73.83H66L70.07,126H285l-61.5,24.71-146.9,59L80.29,257H311.08l-5.75,73.78L223.5,358l-81.83-27.22-1.07-13.7H85l5,64.69,133.48,44.4L357,381.77,370.69,206H239l136.32-59.31Z" transform="translate(0 -2.1)"/>    
    </symbol>

  <symbol id="javaScript" viewBox="0 0 450.62 500.54">
    <path d="M223.5,500.54,32.28,436.93-1.81,0H448.81L414.72,436.93Zm-173-77.83,173,57.56,173-57.56L428,19.23H19ZM45.13,50.49,48.61,95.2H167.25V392.12l-62.87-20.91-3.9-50H66.24l6.09,78.07L203.79,443V50.49Zm351.9,62,4.84-62H243.21V226H354.82l-11.6,148.74L280.71,395.5V371.68l-37.5,12.47V443l131.46-43.73,16.51-211.73H280.71V90.93H365.4l-1.68,21.57Z" transform="translate(1.81)"/>    
    </symbol>

  <symbol id="sass" viewBox="0 0 500 374.43">
    <path d="M500,307c-.95-1.95-.81-4.14-1.35-6.19-3.7-14.23-12.3-24.83-24.56-32.5-17.65-11.06-37.09-13.2-57.31-10.7a96.72,96.72,0,0,0-30.72,9.11c-1.22.59-1.48-.11-1.87-.86q-2.52-5-5-9.94a48.75,48.75,0,0,1-4.85-14.74c-1.24-8.43-1.25-16.72,1.29-24.91,1.17-3.78,2.4-7.55,3.62-11.33.85-2.63.31-4.12-2.06-5.57a9.37,9.37,0,0,0-3.47-1.26,48.71,48.71,0,0,0-21,1.56,5.81,5.81,0,0,0-4.49,4.62c-.32,1.52-1,3-1.35,4.48a99.24,99.24,0,0,1-7.46,21.91c-6.66,13.27-13.93,26.19-21.43,39-1.15,2-2.36,3.91-3.7,6.13-2.95-6.1-6.1-11.64-7.07-18.1-1.11-7.44-1.77-14.84-.1-22.28a165.56,165.56,0,0,1,4.79-15.87c.79-2.35.37-3.56-1.65-5a8.55,8.55,0,0,0-3.58-1.49,44.58,44.58,0,0,0-22.66,2,4.48,4.48,0,0,0-2.91,3.37c-1.59,6-2.9,12-5.37,17.71-7.15,16.61-14.51,33.13-21.92,49.63-6.4,14.24-12.6,28.58-19.9,42.4-.79,1.49-1.68,2.93-2.59,4.36-.33.51-.68,1.34-1.42,1.08-.53-.19-.51-1-.55-1.58a51,51,0,0,1,.58-12.64c1.9-10,4.49-19.9,7-29.79,1.78-6.92,3.95-13.75,5.41-20.75a6,6,0,0,0-1.78-5.71,10.44,10.44,0,0,0-13.55-1,15.61,15.61,0,0,1-1.47.85,76.09,76.09,0,0,0,1-9.5,41.5,41.5,0,0,0-.79-9.31c-1.51-7.43-5.94-12-12.78-12.89-5.47-.72-10.62.67-15.51,3-12.35,5.8-22.21,14.61-30.46,25.36a6.17,6.17,0,0,1-1.87,1.94q-23.81,13-47.58,26.1a1.58,1.58,0,0,1-2.31-.37c-2.74-3-5.64-5.77-8.65-8.46C96,269.41,84.43,261.18,73.37,252.31,64,244.8,54.92,237,47.81,227.23c-6-8.18-9.75-17.15-10-27.43-.24-11.73,3.11-22.46,9-32.45,7.42-12.48,17.45-22.63,28.53-31.83,12.81-10.64,26.76-19.6,41.24-27.75C136.57,96.59,157,86.71,179,80.21c22.14-6.54,44.61-10.23,67.77-7.56,9.24,1.06,18.18,3.28,26.38,7.87,7.4,4.14,12.59,10,14.19,18.57a40,40,0,0,1-.47,16.66c-3.27,14-10.88,25.52-20.45,35.87-14.07,15.23-31.14,26.11-50.25,33.89A161.28,161.28,0,0,1,175.89,196c-10.39,1.35-20.77,1.45-31-1.12-9.1-2.29-17.49-6-23.78-13.32a10,10,0,0,0-1.89-1.67,2.27,2.27,0,0,0-3.47.77,3.8,3.8,0,0,0-.32,2.84,22.87,22.87,0,0,0,4.93,10.07,52.38,52.38,0,0,0,27.89,17.32c14,3.65,28.37,3.39,42.66,1.85A186.77,186.77,0,0,0,233,202.91c27.86-9.8,50-27,66.21-51.6,11.18-17,17.57-35.51,15.29-56.27A47.93,47.93,0,0,0,299.11,64.3c-8.59-8-18.83-13.16-29.94-16.65-15.62-4.9-31.64-6.5-48-6a200.08,200.08,0,0,0-38.6,5.1c-16.94,3.88-33.08,10.09-49,17C102.74,77.12,73.59,93.47,48,115.66c-14.63,12.7-27.58,26.89-37.09,43.94-5.4,9.68-9.4,19.85-10.58,31a5.87,5.87,0,0,0-.15,2c-.12,1.55.25,3.12-.2,4.66v1.17c.62,1.66.39,3.44.84,5.15a70.28,70.28,0,0,0,7.37,17.59c7.33,12.52,17.29,22.73,28.24,32.06,11.11,9.47,23.1,17.76,35.09,26,7.91,5.48,15.93,10.83,23.41,16.92,2.51,2,2.56,2.13-.42,3.61-6.76,3.37-13.42,6.9-19.9,10.78-15,9-29.47,18.61-41.71,31.3A59.07,59.07,0,0,0,18.31,366c-3.69,12.19-3.6,24.12,2.65,35.56,3.87,7.1,9.31,12.09,17.65,13.38,2.62.4,5.28.48,7.87,1.06h.79c.94-.43,1.95-.09,2.92-.2,2,.11,4.05-.24,6.06.2H59c.27-.26.6-.19.92-.2A57,57,0,0,0,77,412.21a83.5,83.5,0,0,0,32.43-21.07,78.8,78.8,0,0,0,16.61-25.3,88,88,0,0,0,6.17-40.9,66.22,66.22,0,0,0-5-21.55c-.73-1.66-.28-2.38,1.15-3.24,6.87-4.11,13.84-8,20.79-12,1.09-.63,2.24-1.16,3.54-1.86a25.75,25.75,0,0,1-.88,3.35,125,125,0,0,0-5,28.78A69.71,69.71,0,0,0,149,341c2.12,8.11,5,15.89,10.15,22.66a18.08,18.08,0,0,0,25.35,3.56,26.84,26.84,0,0,0,6.63-7.85,166.25,166.25,0,0,0,10-19.65c2.07-4.63,4.24-9.22,5.9-14,0-.38.2-.73.14-1.12,0-.08,0-.12-.09-.12-.26,0,.22-.23.18.1a14.15,14.15,0,0,1-.58,2.53,89.89,89.89,0,0,0-.54,16.32,35.46,35.46,0,0,0,2,10.89c1.25,3.28,3,6.26,6.18,8,5.17,2.9,10,1.64,14.37-1.69a44.76,44.76,0,0,0,11.64-13.78c4.45-7.72,8.64-15.59,12.82-23.47,7-13.23,13.63-26.65,19.62-40.38,3.82-8.77,7.58-17.57,11.1-26.57,2.06,8.88,3.73,17.73,7.47,26q3.12,6.84,6.49,13.56c.55,1.11.84,2.11,0,3.27-4.39,6.07-9,12-13.8,17.7-6.19,7.3-12.49,14.5-18.24,22.15a18.15,18.15,0,0,0-3.18,5.57c-1.78,5.77.82,10.28,6.72,11.59a35.31,35.31,0,0,0,10.31.32A59.56,59.56,0,0,0,298.14,352c7.95-3.29,15.35-7.39,21.09-14a34.68,34.68,0,0,0,8.6-22.31c.24-7.95-1.89-15.46-4.87-22.74a3.64,3.64,0,0,1,.43-3.93A377.66,377.66,0,0,0,345,253.45c2.08-3.88,3.91-7.9,6.29-11.65a1.79,1.79,0,0,1,.33,1c2.05,8.81,3.83,17.7,7.69,26,1.43,3.07,3,6.09,4.5,9.11.63,1.23.61,2.07-.54,3a91.62,91.62,0,0,0-13.5,13.78c-6,7.48-11,15.5-13.18,25-.77,3.42-1.41,6.84-.78,10.42,1.33,7.63,7.74,12.23,15.28,10.35,14.29-3.56,26.89-10.12,36.47-21.65,4.56-5.48,7.46-11.63,7.57-19A50.38,50.38,0,0,0,392,282.39c-.87-2.51-.77-2.62,1.68-3.52,9.76-3.61,19.92-5,30.24-5.28a104.16,104.16,0,0,1,16.53,1.14c10.48,1.41,20.55,4.09,29.58,9.87,7.48,4.78,13.34,11,16.65,19.35,1.77,4.45,2.81,9.08,2,13.94-1.19,6.9-4.88,12.23-10.33,16.46-1.86,1.44-3.86,2.67-5.75,4a2.57,2.57,0,0,0-1,3.1,2.42,2.42,0,0,0,2.47,1.56,9,9,0,0,0,4-.67c9-3.77,15.79-9.89,19.83-18.92,1.24-2.77,1.59-5.71,2.1-8.64v-.78a22.39,22.39,0,0,1,0-6.64ZM93.14,372.75C85.23,381.19,75.88,387.31,64.5,390a28.26,28.26,0,0,1-9.3.57c-5.3-.49-8.69-3.84-9.51-9.24-1-6.92.87-13.28,3.65-19.46,3.74-8.27,9.5-15,16.3-20.93,12.71-11.07,26.78-20.18,41.26-28.71,1.5-.88,1.72-.2,2,1a75.68,75.68,0,0,1,2,17.27C110.79,346.26,104.54,360.58,93.14,372.75ZM208.43,270.09c-6,20.18-13.74,39.68-22.08,59a44.66,44.66,0,0,1-5.42,9.46,12.13,12.13,0,0,1-1.13,1.34c-2.31,2.28-4.19,2-5.76-.79-1.87-3.37-2.42-7.12-2.86-10.87-.29-2.51-.33-5.06-.48-7.59.19-16.73,4.86-32.17,13.25-46.57,2.68-4.62,5.42-9.2,9.07-13.14a30.33,30.33,0,0,1,11.27-8.18,12.93,12.93,0,0,1,2.43-.69c3.16-.54,4.75.79,4.63,4C211.17,260.85,209.79,265.48,208.43,270.09Zm95.66,49.35c-1.4,6.88-5.43,12.15-10.53,16.69a43,43,0,0,1-9.84,7c-1.13.53-2.7,1.62-3.54.49s1-1.87,1.69-2.67a325.38,325.38,0,0,0,21.2-25c.33-.45.72-.86,1.27-1.49A11.42,11.42,0,0,1,304.09,319.44ZM352.68,327c-1.2.46-1.55-.15-1.76-1.06a7.89,7.89,0,0,1,.49-4,62.69,62.69,0,0,1,17.82-28.8c1-.95,1.41-.85,1.65.5s.67,2.77.89,4.18a29.17,29.17,0,0,1,.17,3.11C371.76,314.1,364.23,322.51,352.68,327Z" transform="translate(0 -41.57)"/>    
    </symbol>

  <symbol id="nodejs" viewBox="0 0 500 305.94">
    <path d="M237.83,140.61v55.44a5.15,5.15,0,0,1-2.54,4.42l-48,27.73a4,4,0,0,1-.46.23,5.92,5.92,0,0,1-.66.25l-.27.07-.38.07-.32.05a4.92,4.92,0,0,1-.94,0,5.08,5.08,0,0,1-2.09-.67l-48-27.73a5.07,5.07,0,0,1-2.07-2.28,5,5,0,0,1-.47-2.14V140.61a5,5,0,0,1,.47-2.15,5.12,5.12,0,0,1,2.09-2.28l48-27.72a2.31,2.31,0,0,1,.35-.18,1.59,1.59,0,0,1,.27-.12,3.75,3.75,0,0,1,.47-.17l.32-.08.17,0,.13,0a1.67,1.67,0,0,1,.31,0h.07a4.92,4.92,0,0,1,.94,0,5.18,5.18,0,0,1,2.09.67l48,27.73a5.15,5.15,0,0,1,2.54,4.42ZM103.7,136.18l-48-27.72a5.09,5.09,0,0,0-5.12,0l-48,27.72A5.12,5.12,0,0,0,0,140.61v74.92a1,1,0,0,0,1.43.83L29,200.48l5.31-3V156.76l18.87-9.33L72,156.76v40.67l5.32,3,1.48.85,26,15a1,1,0,0,0,1.43-.83V140.61A5.09,5.09,0,0,0,103.7,136.18Zm354.05,38.43V162l-10.88-6.28L436,162v12.57l10.88,6.28ZM447,189.85h-.08l-6.17-3.56-.12-.07-12.35-7.13V157.57l18.64-10.76,18.64,10.76v18.66a1.52,1.52,0,0,0,2.29,1.31L499.25,159a1.54,1.54,0,0,0,.75-1.31V140.61a5.12,5.12,0,0,0-2.56-4.43l-48-27.73a5.14,5.14,0,0,0-5.12,0l-48,27.73a5.09,5.09,0,0,0-2.56,4.43v55.44a5.09,5.09,0,0,0,2.56,4.43l48,27.72a5.14,5.14,0,0,0,5.12,0l29.92-17.27a1.53,1.53,0,0,0,0-2.64ZM334.94,36.9l32.75,18.25a1.57,1.57,0,0,1,.81,1.37V196.05a5.12,5.12,0,0,1-2.56,4.43l-48,27.72a5.08,5.08,0,0,1-5.11,0l-48-27.72a5.11,5.11,0,0,1-2.55-4.43V140.61a5.11,5.11,0,0,1,2.55-4.43l48-27.72a5.08,5.08,0,0,1,5.11,0l14.68,8.47V38.28A1.57,1.57,0,0,1,334.94,36.9ZM332.6,158.38l-17.23-9.95-17.24,9.95v19.9l17.24,9.95,17.23-9.95Zm-95.1,132.5c.28,7.55,3.25,11.19,7.3,13.46a31.78,31.78,0,0,0,15.38,3.48q10.54,0,17.17-4.11T284,292.45a12.25,12.25,0,0,0-3.15-8.14q-3.15-3.68-12.38-5.56l-13.65-2c-5.54-1.12-7.42-2.13-6.41-6.61.39-1.71,3.36-3.27,4.24-3.61,2.83-1.07,4.56-.58,7.91-.69,10.44-.36,12.17,4.39,13.17,8.58a1.12,1.12,0,0,0,1.16.86l6.32-.33a1.15,1.15,0,0,0,1.06-1.37c-.79-3.65-1.3-9.65-8.4-13.06a31.48,31.48,0,0,0-13.76-2.74c-6.18,0-11,.79-15,3.41a13.06,13.06,0,0,0-6.17,11,12.73,12.73,0,0,0,1.5,6.39,11.81,11.81,0,0,0,4.67,4.23,31.74,31.74,0,0,0,8.66,2.83L265,286.92c3.06.64,5.89.55,8.79,2.81,1.92,1.49,1.08,3.67.82,5-.35,1.79-2,3.11-5.13,4.2-2.27.77-5.14.72-9,.89-11.6.5-13.43-3.83-14.59-9.18a1.13,1.13,0,0,0-1.1-.89l-6.18-.06A1.15,1.15,0,0,0,237.5,290.88Zm63.07-40.95-48-27.72a5.09,5.09,0,0,0-5.12,0l-48,27.72a5.09,5.09,0,0,0-2.56,4.43V309.8a5.09,5.09,0,0,0,2.56,4.43l5.66,3.27,7.59,4.38a17.22,17.22,0,0,0,2.11,1c6.42,2.75,14.8,2.55,18.67-3.9,2.83-4.71,2.27-10.18,2.25-15.43s0-10.73-.07-16.1l-.18-27.95c0-.06,0-1.32,0-1.32H227.7q-.06,9.75-.13,19.5-.1,14.19-.2,28.37c0,3.3.42,7.16-2.78,9.23s-7,.32-9.87-1.33c-7.23-4.19-6.81-3.81-6.81-3.81l-.73-.42a5.14,5.14,0,0,1-2.56-4.43v-46.5a5.14,5.14,0,0,1,2.56-4.43l40.26-23.24a5.09,5.09,0,0,1,5.12,0l40.26,23.24a5.14,5.14,0,0,1,2.56,4.43v46.5a5.14,5.14,0,0,1-2.56,4.43L252.56,333a5.09,5.09,0,0,1-5.12,0l-10.58-6.11-8.51,4,19.09,11a5.09,5.09,0,0,0,5.12,0l48-27.72a5.09,5.09,0,0,0,2.56-4.43V254.36A5.09,5.09,0,0,0,300.57,249.93Zm32.29-.93a8.75,8.75,0,1,0-8.75,8.75A8.75,8.75,0,0,0,332.86,249Zm-1,0a7.75,7.75,0,1,1-7.75-7.75A7.76,7.76,0,0,1,331.86,249Zm-11.16,4.07h1.35v-3.5h1.28a1.88,1.88,0,0,1,2.1,1.57,9,9,0,0,0,.7,1.93h1.4a11.64,11.64,0,0,1-.81-2.22,2.15,2.15,0,0,0-1.54-1.63v0a2.27,2.27,0,0,0,2-2.06,1.82,1.82,0,0,0-.83-1.53,5.15,5.15,0,0,0-3-.66,19.45,19.45,0,0,0-2.6.16Zm1.35-7.24a7,7,0,0,1,1.34-.1c1.43,0,2.42.47,2.42,1.51s-.92,1.54-2.37,1.54h-1.39Z" transform="translate(0 -36.7)"/>    
    </symbol>

  <symbol id="react" viewBox="0 0 496 496">
    <path d="M250,320.88c-65.52,0-127.17-7-173.59-19.73C42.46,291.85,2,275.42,2,250s40.46-41.85,74.41-51.15c46.42-12.73,108.07-19.73,173.59-19.73s127.17,7,173.59,19.73c34,9.3,74.41,25.73,74.41,51.15s-40.46,41.85-74.41,51.15C377.17,313.88,315.52,320.88,250,320.88Zm0-133.76c-143.56,0-240,32.51-240,62.88s96.44,62.88,240,62.88S490,280.37,490,250,393.56,187.12,250,187.12ZM250,498c-25.42,0-41.85-40.46-51.15-74.41C186.12,377.17,179.12,315.52,179.12,250s7-127.17,19.73-173.59C208.15,42.46,224.58,2,250,2s41.85,40.46,51.15,74.41c12.73,46.42,19.73,108.07,19.73,173.59s-7,127.17-19.73,173.59C291.85,457.54,275.42,498,250,498Zm0-488c-30.37,0-62.88,96.44-62.88,240S219.63,490,250,490s62.88-96.44,62.88-240S280.37,10,250,10ZM96.14,433c-8.61,0-16.07-2.24-21.5-7.67h0c-18-18-1-58.2,16.44-88.78,23.83-41.82,62.47-90.37,108.8-136.7s94.88-85,136.7-108.8c30.58-17.42,70.81-34.42,88.78-16.44s1,58.2-16.44,88.78c-23.83,41.82-62.47,90.37-108.8,136.7s-94.88,85-136.7,108.8C142.08,421.08,116,433,96.14,433ZM80.29,419.71C101.77,441.18,193,396,294.47,294.47S441.18,101.77,419.71,80.29,307.05,104,205.54,205.54,58.82,398.23,80.29,419.71ZM403.86,433c-19.89,0-45.94-11.95-67.28-24.11-41.82-23.83-90.37-62.47-136.7-108.8s-85-94.88-108.8-136.7C73.66,132.84,56.66,92.61,74.64,74.64s58.2-1,88.78,16.44c41.82,23.83,90.37,62.47,136.7,108.8s85,94.88,108.8,136.7c17.42,30.58,34.42,70.81,16.44,88.78C419.93,430.79,412.47,433,403.86,433ZM96.19,75c-7,0-12.34,1.75-15.9,5.3C69.22,91.37,75.68,120.23,98,159.46c23.49,41.22,61.66,89.17,107.51,135,85,84.95,162.67,130.46,198.35,130.47,7,0,12.31-1.73,15.82-5.23C441.18,398.23,396,307.05,294.47,205.54c-45.84-45.85-93.79-84-135-107.51C132.81,82.85,110.94,75,96.19,75ZM250,222.32A27.68,27.68,0,1,0,277.68,250,27.68,27.68,0,0,0,250,222.32Z" transform="translate(-2 -2)"/>    
    </symbol>
  
  <symbol id="express" viewBox="0 0 491.17 138.06">
    <path d="M9,6.44V52.13H55.08v4H9v53H59.16v4H5V2.44H59.16v4ZM139,30.85l-3.26-2.32L108.45,67,81.15,28.53l-3.26,2.32L106,70.43,77.89,110l3.26,2.31,27.3-38.44,27.29,38.44L139,110,110.9,70.43ZM223.28,68.8c0,22.66-14.42,41.1-32.14,41.1-12.1,0-22.65-8.59-28.14-21.25v51.84h-4V29.69h4V49c5.48-12.67,16-21.26,28.14-21.26C208.86,27.69,223.28,46.13,223.28,68.8Zm-4,0c0-20.47-12.62-37.11-28.14-37.11S163,48.33,163,68.8s12.62,37.1,28.14,37.1S219.28,89.26,219.28,68.8Zm137.1,33.12-3-2.69c-7.38,8.11-24.65,6.7-24.82,6.68h-.18c-15,0-27.31-15.58-28.1-35.11h60.25v-2c0-22.67-14.42-41.11-32.15-41.11S296.28,46.13,296.28,68.8s14.37,41.05,32.05,41.11c.38,0,1.67.12,3.54.12C337.89,110,349.89,109.06,356.38,101.92Zm-28-70.23c15,0,27.31,15.57,28.11,35.11H300.32C301.11,47.26,313.41,31.69,328.42,31.69Zm-41.14,0v-4c-1.1,0-24.43.19-37.11,14.53V29.69h-4v81.47h4V49C260.25,31.94,287,31.69,287.28,31.69ZM418.8,105.77c5.16-4.33,8.19-11.64,7.89-19.08-.27-6.74-3.22-12.59-8.1-16.06-4.51-3.2-9.82-4.67-15-6.09-2-.55-3.89-1.07-5.73-1.69-7.22-2.42-11.83-5.94-13.71-10.47S383.5,41.92,387.11,38c6.11-6.57,16.27-5.94,25.4-4.45a27.81,27.81,0,0,1,12.09,4.67L427,35a31.81,31.81,0,0,0-13.8-5.39c-10.18-1.66-21.58-2.28-29,5.67a17.84,17.84,0,0,0-3.69,18.61c2.34,5.65,7.77,9.93,16.14,12.73,1.94.66,4,1.22,5.93,1.76,4.81,1.33,9.78,2.7,13.71,5.49s6.2,7.47,6.42,13c.25,6.23-2.23,12.3-6.46,15.85-3.55,3-8.72,4.52-14.17,4.25a33.37,33.37,0,0,1-18.38-6.69,22.55,22.55,0,0,1-2.83-2.65l-3,2.66a26.35,26.35,0,0,0,3.34,3.12,37,37,0,0,0,20.66,7.55c.5,0,1,0,1.49,0A23.93,23.93,0,0,0,418.8,105.77Zm69.21,0c5.17-4.33,8.2-11.64,7.9-19.08-.27-6.74-3.22-12.59-8.1-16.06-4.51-3.2-9.82-4.67-15-6.09-2-.55-3.89-1.07-5.73-1.69-7.22-2.42-11.84-5.94-13.72-10.47s-.69-10.46,2.93-14.35c6.11-6.57,16.27-5.94,25.4-4.45a27.86,27.86,0,0,1,12.09,4.67L496.18,35a31.81,31.81,0,0,0-13.8-5.39c-10.19-1.66-21.59-2.28-29,5.67a17.84,17.84,0,0,0-3.69,18.61c2.34,5.65,7.77,9.93,16.13,12.73,2,.66,4,1.22,5.94,1.76,4.81,1.33,9.78,2.7,13.71,5.49s6.2,7.47,6.42,13c.25,6.23-2.23,12.3-6.46,15.85-3.56,3-8.72,4.52-14.18,4.25a33.37,33.37,0,0,1-18.37-6.69,21.88,21.88,0,0,1-2.83-2.65l-3,2.66a25.69,25.69,0,0,0,3.34,3.12,37,37,0,0,0,20.65,7.55c.5,0,1,0,1.5,0A23.88,23.88,0,0,0,488,105.77Z" transform="translate(-5.01 -2.44)"/>    
    </symbol>

  <symbol id="mongoDB" viewBox="0 0 484.99 495.1">
    <path d="M265.65,361.82c1.6-1.71,1.12-.81-.44-.88-11.36,11-7,52.7-7,52.7-7.88,2.43-10.13-4.44-10.13-4.44a123.91,123.91,0,0,0-5.24-43.05c0,.26-.11.52-.17.78,0,0-105.93-74.79-82.71-198.36,0,0,4-79.91,82.68-151.27,0,0,.85,4.81,5.4-13.73,0,0,.73,1.41,2,3.7,5.09,9.33,19.21,33.82,31.61,42.47,0,0,56.1,62,61.38,145.55C343,195.29,353.52,290.47,265.65,361.82ZM24.42,450.6v-6c0-2,0-4,0-6a4,4,0,0,1,2.15-3.87,21.48,21.48,0,0,1,6.35-2.71c5.74-1.32,10.2,1.32,11.86,7a18.64,18.64,0,0,1,.57,3.92,173.13,173.13,0,0,1-.12,19.86c-.09,2.58-.78,3.31-3.29,3.88-.88.2-1.79.31-2.67.53-1.08.26-1.46,1.1-1.29,2.54.11,1,.53,1.4,1.6,1.37,6.63-.2,13.25-.27,19.87,0,1.35.05,1.72-.57,1.81-1.73.12-1.71,0-1.9-1.71-2.29l-1.93-.46c-2.77-.67-3.38-1.41-3.39-4.3,0-5.87,0-11.75,0-17.63a34.48,34.48,0,0,0-.34-7.18,1.85,1.85,0,0,1,1-2.08,17.69,17.69,0,0,1,7.48-3.13c6.84-1,11.75,2.9,12.14,9.8s.21,13.74,0,20.61c0,2.42-.78,3.23-3,3.91-.71.21-1.45.33-2.16.53-1.19.33-1.36.91-1.23,2.76.1,1.27.88,1.17,1.73,1.12,4.22-.2,8.44-.38,12.66-.26,2.32.07,4.64.18,7,.31.87.05,1.36-.19,1.57-1.14.47-2.2.34-2.46-1.9-2.92-.56-.12-1.13-.25-1.69-.4-2.92-.74-4-1.51-3.88-5,.13-6.62.09-13.25,0-19.87a20.12,20.12,0,0,0-2.55-10,13.05,13.05,0,0,0-13.42-6.54c-4.55.68-8.37,3-12.09,5.51-2.69,1.82-2.67,1.84-4.63-.62-3.56-4.51-8.38-6-13.93-4.34a32.84,32.84,0,0,0-9.46,4.84c-.47.33-.9.73-1.4,1-1,.59-1.62.31-1.62-.87s.25-2.63.28-4c0-1.48-.36-1.75-1.79-1.24a78.41,78.41,0,0,1-11.5,3c-.73.14-1.48.18-2.2.36s-1.69.47-1.75,1.48.8,1.13,1.48,1.4l4.15,1.63a4,4,0,0,1,2.73,4.24c-.1,6.54,0,13.08-.1,19.62,0,2-.2,4-.31,6a3.31,3.31,0,0,1-2.62,3.22c-1,.28-2.1.44-3.15.67-1.42.3-1.74.9-1.63,2.51.1,1.41,1,1.49,2,1.42a166.9,166.9,0,0,1,19.37,0c1.76.09,1.82,0,1.95-1.71s0-1.94-1.71-2.26c-.4-.07-.81-.14-1.22-.23-3.33-.71-3.94-1.38-4-4.87-.07-3.81,0-7.62,0-11.42ZM172.19,427c0-1.77-.42-2.06-2.08-1.45a71.35,71.35,0,0,1-9.31,2.59c-1.45.32-2.93.52-4.39.8-1,.2-2,.63-2.14,1.77s.83,1.51,1.73,1.81c.39.13.79.23,1.17.4,1.21.52,2.43,1,3.63,1.6a3,3,0,0,1,1.77,3c0,8,.12,16.07-.16,24.1-.14,4-.56,4.47-4.42,5.28l-1,.2c-1.48.33-1.77.86-1.58,3,.13,1.53.19,1.64,2.09,1.56,6.54-.26,13.08-.35,19.63,0a8.17,8.17,0,0,0,1,0c.32,0,.65,0,.84-.38a4.79,4.79,0,0,0,.38-3.38c-.22-1-1.22-.58-1.88-.73s-1.63-.28-2.43-.47c-1.95-.48-2.53-1.09-2.63-3-.45-8.11-.34-16.23-.33-24.35a4.75,4.75,0,0,1,2.44-4.31,16,16,0,0,1,6.75-2.32c6.44-.67,10.82,3.39,11.23,8.86.5,6.62.26,13.24.31,19.86,0,4.6-.34,5-4.93,5.75-1.69.29-2.06.82-1.88,2.71.15,1.65.36,1.89,2.18,1.81,6.46-.29,12.92-.34,19.37,0a8.69,8.69,0,0,0,1.25,0,.83.83,0,0,0,.74-.56,5.67,5.67,0,0,0,.23-3.18c-.26-1.14-1.4-.57-2.07-.92l-.24-.07c-4.89-1.06-5-1.17-5.07-6.21-.07-6,0-11.93-.11-17.89a24.2,24.2,0,0,0-1.91-9.68,13.39,13.39,0,0,0-15.74-7.72,29.3,29.3,0,0,0-10.28,5.35,4.72,4.72,0,0,1-2.3,1.37A44.8,44.8,0,0,1,172.19,427Zm225.46,19.9a31.34,31.34,0,0,1-13.93,17.76,43.83,43.83,0,0,1-18.18,6.06c-5.87.74-11.74.13-15.52.35H334a7.09,7.09,0,0,1-2.22-.16c-.81-.28-2.19.28-2.26-1.32a3.28,3.28,0,0,1,2-3.14,11.47,11.47,0,0,1,2-.3,5.22,5.22,0,0,0,4.13-2.42,11.06,11.06,0,0,0,.84-3.84,9.22,9.22,0,0,0,0-1.49l0-44.72c0-.42,0-.83,0-1.24-.19-3.11-1.5-4.69-4.54-5.34-1.61-.34-3.27-.49-4.87-.85s-1.73-.67-1-2.2a3.36,3.36,0,0,1,3.48-2.12c8.61.12,17.22.06,25.84.05,1.73,0,3.48-.27,5.18-.26,11.16,0,21.58,2.18,29.29,11.23A31.93,31.93,0,0,1,399.22,431,40,40,0,0,1,397.65,446.89Zm-11-19.35c-2.52-9.91-8.81-16.48-18.66-19.39a42.28,42.28,0,0,0-14.7-1.2c-3,.19-3.76.87-3.77,3.93,0,7.62,0,15.23,0,22.84h0v2.73c0,6.87,0,13.74.05,20.61,0,4.37,1.7,6.55,5.84,7.8a28.11,28.11,0,0,0,13.26.51c8-1.49,13.44-6.6,16.46-14A37.49,37.49,0,0,0,386.6,427.54Zm74.51,34.12c-5.06,5.36-11.46,7.94-18.61,9-6.76,1-13.55.27-20.33.48-4.47.14-8.91-.47-13.38-.45-1.73,0-2-.48-1.38-2.14a3,3,0,0,1,3.09-2.35,8.44,8.44,0,0,0,2.43-.38c3.13-.83,3.62-1.32,4-4.47a18.56,18.56,0,0,0,.07-2.24l.06-46.71c0-.33,0-.66,0-1-.1-2.72-1.12-3.9-3.75-4.39-1.38-.26-2.77-.43-4.16-.61-2.22-.29-2.36-.75-1.43-2.74a2.56,2.56,0,0,1,2.68-1.7c10.93.07,21.86,0,32.79.11a21.11,21.11,0,0,1,11.67,3.66c3.81,2.54,5.55,6.2,5.91,10.64.48,6-2.31,10.3-7.07,13.56-.88.6-1.81,1.14-3.18,2,1.68.6,2.92,1,4.12,1.47,5.14,2.07,9.23,5.34,10.78,10.87A17.22,17.22,0,0,1,461.11,461.66Zm-33.2-32.52c0,1.24.46,1.84,1.64,2a12.26,12.26,0,0,0,1.47.17,69,69,0,0,0,10.36-.38c4-.65,6.64-2.82,7.77-6.66,2.33-8-1.39-15.47-10.63-16.84a47.5,47.5,0,0,0-7.14-.41c-2.81,0-3.35.53-3.38,3.3,0,3.06,0,6.11,0,9.17h-.05C427.94,422.7,428,425.92,427.91,429.14ZM454.4,451.3c.18-7.46-4.58-12.21-10.74-13.93a27.52,27.52,0,0,0-9-1.08c-2.05,0-3.54,0-5,0-1.3,0-1.79.55-1.7,1.8.05.66,0,1.32,0,2,0,6,0,11.92.05,17.88,0,4.35,2,6.86,6.28,7.55a28,28,0,0,0,9.4,0,12.29,12.29,0,0,0,8.51-5.47A16.26,16.26,0,0,0,454.4,451.3ZM263.72,481.81a19.63,19.63,0,0,1-6.29,9.35c-7.92,6.71-17.08,8.86-27.14,6.69-5.34-1.15-9.55-4.13-11.57-9.51a8.09,8.09,0,0,1,2.18-9.5,70.71,70.71,0,0,1,7-5.52c.45-.33.88-.7,1.4-1.11-.41-.95-1.33-1-2-1.41a9.4,9.4,0,0,1-4.28-4.33c-.92-2-.73-2.67,1.15-3.87s3.54-2.13,5.25-3.29,1.55-1.46-.23-2.2a13.93,13.93,0,0,1-8.79-10c-2-8.25,1.44-15.45,9.08-19.12,6.76-3.23,13.63-3.84,20.65-1a20.32,20.32,0,0,0,8.23,1.48,9.14,9.14,0,0,0,6.33-2.41c1.55,6.07-1.25,8.6-8.26,7.91-.66.61-.07,1.25,0,1.83,2.14,12.09-4.87,18.68-14.09,21.37a37.21,37.21,0,0,1-5.14.84,8,8,0,0,0-1.71.26,3.09,3.09,0,0,0-2.34,2.62,2.9,2.9,0,0,0,1.94,2.9,12,12,0,0,0,4.35.86c4.87.34,9.72.74,14.57,1.38C261.46,467,266.22,473.54,263.72,481.81Zm-33.1-33.9a9.57,9.57,0,0,0,5.28,5c5.24,2,9.91-.2,11.5-5.56a13.8,13.8,0,0,0,.67-4.59,16.09,16.09,0,0,0-2-8.65,10,10,0,0,0-10.45-4.6c-3.56.74-5.89,3.51-6.59,7.79A17.45,17.45,0,0,0,230.62,447.91Zm19.45,26.62c-.56-.16-1.11-.33-1.67-.45a44.84,44.84,0,0,0-9.65-1c-3.67-.69-7.06.86-9.9,3.88a8,8,0,0,0-.36,11,12.64,12.64,0,0,0,5.89,4,23.62,23.62,0,0,0,13.43.35,12.52,12.52,0,0,0,5.76-3.25C257.48,485.16,258.24,476.92,250.07,474.53Zm-104.9-26.66c-.16,7.84-2.65,14.69-9.3,19.31-7,4.89-14.82,6.38-23.1,3.65-8.06-2.65-12.17-8.71-13.77-16.71A27.7,27.7,0,0,1,98.81,444a19.76,19.76,0,0,1,7.54-13c6.72-5.11,14.32-7.16,22.65-5.24,8.6,2,13.61,7.69,15.61,16.15A21.34,21.34,0,0,1,145.17,447.87Zm-9.92,3.94c0-5.41-.84-9.73-2.6-13.25a15.16,15.16,0,0,0-6.86-7.26c-7-3.39-14.73-1.25-16.86,7.81a30.56,30.56,0,0,0,.28,14.26,21.91,21.91,0,0,0,3.23,7.47,14.35,14.35,0,0,0,8.21,6c6.37,1.7,11.68-1.21,13.57-7.47A24.53,24.53,0,0,0,135.25,451.81Zm184.08-4.05a25.46,25.46,0,0,1-3,12.42c-3.59,6.48-9.43,9.76-16.39,11.4a23.71,23.71,0,0,1-12.75-.65,19.16,19.16,0,0,1-12.28-11.15A28.26,28.26,0,0,1,273,443.47a19.09,19.09,0,0,1,6.94-12c6.85-5.47,14.65-7.6,23.27-5.65a20.37,20.37,0,0,1,15.85,18.23C319.23,445.28,319.26,446.53,319.33,447.76Zm-9.93,3.63a28.09,28.09,0,0,0-2.73-13.07,14.92,14.92,0,0,0-6.76-7c-7.27-3.52-14.61-.77-16.72,7.37a26.78,26.78,0,0,0-.77,8.36c.29,4.76,1.26,9.34,3.91,13.42a13.92,13.92,0,0,0,8.49,6.43c6.68,1.57,11.75-1.25,13.57-7.47A32.45,32.45,0,0,0,309.4,451.39ZM492.49,462.3c-.23,5.32-3.73,8.67-8.64,8.68a8.65,8.65,0,1,1,8.64-8.68Zm-.92,0a7.7,7.7,0,0,0-7.83-7.88,7.47,7.47,0,0,0-7.6,7.79c-.41,4.71,3.66,7.82,7.71,7.87A7.82,7.82,0,0,0,491.57,462.32ZM480.76,467H482V463h1.14c1.09,0,1.59.53,1.87,1.81a12.34,12.34,0,0,0,.62,2.24h1.25a15,15,0,0,1-.72-2.57,2.32,2.32,0,0,0-1.37-1.88v0a2.47,2.47,0,0,0,1.76-2.39,2.32,2.32,0,0,0-.74-1.77,3.79,3.79,0,0,0-2.7-.77,12.15,12.15,0,0,0-2.32.2Zm1.21-8.38a5.25,5.25,0,0,1,1.19-.11c1.28,0,2.15.54,2.15,1.75s-.82,1.77-2.11,1.77H482Z" transform="translate(-7.5 -3.57)"/>    
    </symbol>

  <symbol id="mongoose" viewBox="0 0 493.71 201.27">
    <path d="M190.44,147.38l19.79,31.2c6.5-10.62,13.58-20.09,19.29-30.83,1.44,1.53.78,3.06.78,4.39,0,15.84-.05,31.68.07,47.52,0,3.8-1.06,5.35-5.14,5.25-10.37-.25-20.75-.13-31.12,0-2.4,0-3.77-.23-3.74-3.29C190.51,183.87,190.44,166.16,190.44,147.38Zm305.7-81c-2.77,6.59-6.05,13-9,19.48-3.45,7.64-10.18,10.59-17.61,12.66-13.46,3.74-27.26,5.89-40.9,8.81-19,4.06-38,8.12-56.93,12.44a39.78,39.78,0,0,0-10.1,4.39c-3.27,1.82-4,4.85-2.48,8.29,1.33,3.06,2.71,6.09,4.3,9.63-13.1.46-25.65,1-38.21,1.34-19.17.52-35.09,7.17-46,23.7-1.58,2.39-4.26,3.56-6.71,4.92-1.67-1.22-.84-2.86-.84-4.19-.07-20.4-.21-40.8.07-61.2.07-4.61-1.37-5.58-5.65-5.47-10.76.3-21.53.25-32.29,0-3.54-.07-5.38,1.14-6.94,4.25-5.38,10.76-11.08,21.37-16.92,32.56-5.89-8.44-9.88-17.32-13.72-26.11-3.66-8.4-8.55-12-17.92-10.81-8,1-16.23.4-24.34.11-3.85-.14-5.2.78-5.07,4.88.3,10.34.1,20.69.1,32.19-4.76-5.27-9.13-9.54-12.84-14.31-9-11.56-21.57-17.77-34.77-22-29.09-9.26-58.45-7.62-87.59.68-3.41,1-6.87,1.75-10.33,2.62-.62-2.16,1-2.59,1.81-3.38C20.58,87.7,37.49,75.57,54.75,63.73,73.38,51,93.69,42,114.15,32.93c26.56-11.78,54.25-16,83-15.31,3.17.07,4.57.69,4.89,4.31,2.63,29,17.44,50.33,42,65.27,5,3.06,9.53,7.26,15.77,8,1.18.38,2.46,0,3.62.52s2.29.85,3.48,1.15c.32.12.65.25,1,.35s.9.35,1.38.48c-.34-.61-1.09-.24-1.54-.63-1.14-.45-2.33-.69-3.45-1.16s-2.44-.65-3.12-1.87c-12.81-7.54-25.69-15.21-34.75-27.27C215.82,52.63,207,37.48,207,19c0-8.72,2.26-11.59,11-12.72,10.88-1.42,21.37,1.43,31.75,4.15,6.91,1.8,13.64,4.25,20.46,6.41a3.1,3.1,0,0,0,2.37.21,9.11,9.11,0,0,1-1.11-1.21L254,7.21a113.66,113.66,0,0,1,44.74-2.37c19.43,2.68,39,4.59,58.21,8.47,22.56,4.55,45.14,9.32,66.87,16.85,18.21,6.31,36.55,12.42,54.26,20.22,6.21,2.74,1.27,6.26,1.87,9.33-1.2,1.68.09,3.52-.3,5.25a5.48,5.48,0,0,0-.36.92c-.09.5,0,.6,0,.21.59-1,.85-2.15,1.7-2.94.22-.72.39-1.46.65-2.16,1.39-3.67,1.47-8.81,7.91-6.58S498.5,60.81,496.14,66.42Zm-229.8-18c-11.93-12.4-25.82-21.21-42.28-25.62-2.83-.76-3.71,1.2-3.71,3.55a23.11,23.11,0,0,0,2.8,11.42c8.92,16.08,20.76,29.45,36.52,39.15.62.38,1.3.8,2-.47L252.58,64l8.13,2.15c-3.15-5.75-7.11-10.41-10.95-15.48,4.33.42,7.95,2.61,13,4.94-2.64-4.31-4.49-7.35-7-11.47Zm116.17,51c0-2.16-1.33-1.52-2.52-1.17-9.67,2.21-19.19,5-28.05,9.45-12.8,6.47-14,10.39-7.87,23.51,2.74-.37,1.31-2.18,1.22-3.53-1.52-8.67,2.07-13.94,10-17.71C364.18,105.77,373.34,102.63,382.51,99.4Zm17.8-50.27c-22.71-5-44.22-10.88-66.62-11.43,3.38,3.08,8.8,1.63,11.39,5.74,4.16,6.59,10.57,8.61,17.7,9.62,9.24,1.31,18.43.11,27.65-.17C393.76,52.8,396.66,51.84,400.31,49.13Z" transform="translate(-3.29 -3.65)"/>    
    </symbol>

  <symbol id="anime" viewBox="0 0 353.42 42.9">
    <path d="M183.29,45.44H169.52a18.33,18.33,0,0,1-.41-2.75c0-9.5-.08-19,0-28.5.06-6.48,2.61-9.54,9-10.8a38.32,38.32,0,0,1,7.17-.64q41.57-.06,83.12,0a33.66,33.66,0,0,1,5.59.37c7.75,1.28,10.31,4.32,10.33,12.13,0,9.89,0,19.78,0,30H270.24c-.06-1.36-.19-2.77-.19-4.18,0-8.83-.1-17.67,0-26.5,0-3.39-.71-4.92-4.69-4.89q-38.74.29-77.49,0c-3.68,0-4.64,1.36-4.62,4.6.06,8.83,0,17.67,0,26.5ZM89.55,40.62c0-8.69.1-17.39,0-26.08-.05-3.46.81-5,4.73-4.85,9,.31,17.93.28,26.88,0,3.62-.11,4.75,1.24,4.68,4.54-.09,4.28,0,8.57,0,12.85V45.23H140c0-11.06.06-21.76,0-32.45,0-4.56-2.57-7.55-6.86-8.82A25.9,25.9,0,0,0,126,2.79c-12.3-.11-24.61-.07-36.92,0a25.45,25.45,0,0,0-5.55.73c-5.65,1.33-8.19,4.43-8.24,10.21-.08,9.77,0,19.53,0,29.3a18,18,0,0,0,.33,2.4H89.55Zm58.18-23.29v28h13.73v-28Zm13.69-7V3.7H147.68v6.6ZM67.78,45.38c-1.5.08-2.91.21-4.32.21q-23.47,0-46.95,0a36.58,36.58,0,0,1-4.8-.26C6.5,44.61,3.86,42,3.3,36.7a60.35,60.35,0,0,1-.18-7.61c.18-9.21,3-12,12.1-12,11.1,0,22.2,0,33.3,0h5.1c-.2-2.62-.37-4.7-.56-7.17H3.37V3c1.07-.07,2.22-.21,3.38-.21q24.48,0,49,0c8.81,0,11.69,2.46,12,11.29C68,24.31,67.78,34.6,67.78,45.38ZM53.45,24.15h-26c-10.66,0-10.57,0-10,10.62.15,2.85,1,4,4,3.91,9.63-.16,19.26,0,28.88-.08a25.33,25.33,0,0,0,3.13-.37ZM306.5,31.32c-.91,6.93-.61,7.3,5.37,7.3h44.37v6.6a7.23,7.23,0,0,1-1.54.34c-17.53,0-35.06.12-52.58-.07-7.06-.07-9.79-2.69-10.08-9.75-.34-8-.26-16,.09-24.06.25-5.81,3.09-8.71,8.9-8.8q23.07-.36,46.16,0c5.9.09,8.72,3.24,9.15,9.1a78.82,78.82,0,0,1,.09,8.42c-.27,7.86-3.21,10.77-11.19,10.9-7.22.11-14.45,0-21.68,0Zm2.63-7c7.59-.13,15.19,0,22.79,0,11.43,0,11.43,0,10.19-11.55,0-.26.05-.63-.09-.78-.73-.74-1.5-2-2.27-2.06C328.84,9.75,317.93,9.8,306,9.8c0,4,.13,7.65,0,11.32C305.83,23.56,306.67,24.37,309.13,24.33Z" transform="translate(-3.08 -2.7)"/>    
    </symbol>
</svg>