<svg width="123" height="112" viewBox="0 0 123 112" fill="none" xmlns="http://www.w3.org/2000/svg">
<path d="M7 88.6045V65.0726H17.2407C19.0565 65.0726 20.4364 65.1453 21.3806 65.3632C22.6879 65.581 23.85 66.0168 24.7215 66.5979C25.5931 67.2515 26.3194 68.1231 26.9004 69.2125C27.4815 70.3019 27.6993 71.5366 27.6993 72.9166C27.6993 75.2407 26.9731 77.2017 25.5205 78.7996C24.0679 80.3974 21.3806 81.1963 17.5312 81.1963H10.5588V92.236C8.59784 92.1634 7 90.5655 7 88.6045ZM10.5588 77.928H17.6039C19.928 77.928 21.5985 77.4922 22.5427 76.6207C23.4868 75.7491 23.9952 74.5144 23.9952 72.9892C23.9952 71.8272 23.7047 70.883 23.1237 70.0841C22.5427 69.2851 21.8164 68.7767 20.8722 68.4862C20.2912 68.3409 19.1291 68.2683 17.5312 68.2683H10.5588V77.928V77.928Z" fill="#29ABE2"/>
<path d="M63.3604 88.6045V65.0726H75.4168C77.8136 65.0726 79.7019 65.2905 80.9366 65.7989C82.1713 66.3073 83.1881 67.1789 83.9871 68.4136C84.7134 69.6483 85.1491 71.0282 85.1491 72.4808C85.1491 74.3692 84.4955 76.0397 83.2608 77.347C82.0261 78.6543 80.0651 79.5259 77.5231 79.889C78.4672 80.3248 79.1935 80.7606 79.7019 81.269C80.7187 82.2131 81.7356 83.4478 82.6797 84.9004L87.4006 92.3086H84.786C83.6239 92.3086 82.5345 91.7276 81.8808 90.7108L79.3388 86.6435C78.322 85.0457 77.4504 83.7384 76.7241 82.9394C76.0705 82.0679 75.4168 81.4869 74.9084 81.1237C74.4 80.7606 73.819 80.5427 73.2379 80.3974C72.8022 80.3248 72.1485 80.2522 71.2043 80.2522H67.0644V92.3086C64.9582 92.1634 63.3604 90.5655 63.3604 88.6045ZM66.9192 77.0565H74.6179C76.2884 77.0565 77.5231 76.9112 78.4672 76.5481C79.4114 76.1849 80.0651 75.6765 80.5735 74.9502C81.0819 74.2239 81.2998 73.425 81.2998 72.4808C81.2998 71.1735 80.864 70.1567 79.9198 69.2851C78.9756 68.4862 77.5231 68.0504 75.4894 68.0504H66.9192V77.0565Z" fill="#29ABE2"/>
<path d="M94.7363 88.7498V65H114.346V68.1957H98.2952V76.5481H113.329V79.7437H98.2952V88.9677H115V92.1633H98.1499C96.2615 92.1633 94.7363 90.6381 94.7363 88.7498Z" fill="#29ABE2"/>
<path d="M52.3933 65.3632H55.8795V80.5427C55.8795 83.1573 55.589 85.2636 55.008 86.8614C54.4269 88.3866 53.3375 89.694 51.7396 90.6381C50.2144 91.5823 48.1082 92.0907 45.5662 92.0907C43.0968 92.0907 41.0631 91.655 39.5379 90.7834C37.9401 89.9119 36.8507 88.6772 36.197 87.0793C35.5433 85.4815 35.1802 83.3026 35.1802 80.47V65.2905H38.6664V80.47C38.6664 82.7216 38.8843 84.4647 39.32 85.5541C39.7558 86.6435 40.4821 87.4425 41.4989 88.0235C42.5157 88.6045 43.8231 88.895 45.2756 88.895C47.8177 88.895 49.6334 88.314 50.7228 87.1519C51.8123 85.9899 52.3207 83.7384 52.3207 80.47V65.3632H52.3933Z" fill="#29ABE2"/>
<path d="M11.5029 111.483V100.516H15.6428C16.3691 100.516 16.9501 100.516 17.3133 100.588C17.8217 100.661 18.3301 100.879 18.6932 101.097C19.0564 101.315 19.3469 101.678 19.5648 102.186C19.7827 102.622 19.9279 103.13 19.9279 103.711C19.9279 104.656 19.6374 105.455 19.0564 106.108C18.4753 106.762 17.3859 107.052 15.8607 107.052H13.0281V111.483H11.5029ZM12.9555 105.745H15.7881C16.7322 105.745 17.3859 105.6 17.8217 105.237C18.1848 104.874 18.4027 104.365 18.4027 103.784C18.4027 103.348 18.2575 102.913 18.0396 102.622C17.8217 102.259 17.5312 102.114 17.0954 101.968C16.8775 101.896 16.3691 101.896 15.7154 101.896H12.8829V105.745H12.9555Z" fill="black"/>
<path d="M24.8667 111.483L29.0792 100.516H30.677L35.1801 111.483H33.5096L32.2023 108.142H27.6266L26.3919 111.483H24.8667ZM28.0624 106.98H31.7665L30.6044 103.929C30.2413 102.985 30.0234 102.259 29.8055 101.678C29.6602 102.404 29.4423 103.058 29.2245 103.784L28.0624 106.98Z" fill="black"/>
<path d="M46.5835 111.483V100.516H48.1087L53.8464 109.159V100.516H55.2264V111.483H53.7012L47.9634 102.84V111.483H46.5835Z" fill="black"/>
<path d="M63.8688 111.483V101.823H60.2373V100.516H68.9528V101.823H65.3214V111.483H63.8688Z" fill="black"/>
<path d="M73.8914 111.483V100.516H81.808V101.823H75.3439V105.164H81.4448V106.471H75.3439V110.175H82.0985V111.483H73.8914Z" fill="black"/>
<path d="M87.1104 111.483V100.516H91.9765C92.9207 100.516 93.7196 100.588 94.228 100.806C94.7364 101.024 95.1722 101.387 95.4627 101.823C95.7532 102.331 95.8985 102.84 95.8985 103.494C95.8985 104.292 95.6806 104.946 95.1722 105.455C94.6638 105.963 93.8649 106.326 92.8481 106.471C93.2112 106.689 93.5017 106.834 93.7196 107.052C94.1554 107.416 94.5185 107.924 94.9543 108.505L96.8427 111.483H95.0269L93.5744 109.231C93.1386 108.578 92.7754 108.069 92.5575 107.706C92.267 107.343 92.0491 107.125 91.8313 106.98C91.6134 106.834 91.3955 106.762 91.1776 106.689C91.0323 106.689 90.7418 106.617 90.3787 106.617H88.7082V111.483H87.1104V111.483ZM88.5629 105.309H91.686C92.3397 105.309 92.8481 105.237 93.2112 105.091C93.5744 104.946 93.8649 104.728 94.0828 104.438C94.3006 104.147 94.3733 103.784 94.3733 103.421C94.3733 102.913 94.1554 102.477 93.7922 102.114C93.4291 101.75 92.8481 101.605 91.9765 101.605H88.4903V105.309H88.5629Z" fill="black"/>
<path d="M101.781 111.483V110.103L107.374 103.058C107.737 102.549 108.173 102.114 108.536 101.75H102.435V100.516H110.279V101.823L104.106 109.449L103.452 110.248H110.497V111.555H101.781V111.483Z" fill="black"/>
<path d="M40.1187 111.483V100.516H41.5712V111.483H40.1187Z" fill="black"/>
<path d="M122.766 59.7218L121.46 61.6083C121.218 61.8985 120.831 61.9952 120.493 61.7534L120.251 61.5599L119.816 62.1404C119.574 62.4306 119.187 62.5273 118.848 62.2855L102.112 49.5638C101.821 49.322 101.725 48.8866 101.967 48.5964L102.402 48.016L97.8066 44.5332C97.5164 44.2914 97.4196 43.856 97.6615 43.5658L110.625 25.2815L106.368 22.089L102.982 26.8777L104.869 28.3289C105.159 28.5707 105.256 29.0061 105.014 29.2963L85.9073 56.2391C85.6654 56.5293 85.2784 56.626 84.9398 56.3842L78.2646 51.3052C77.9744 51.0633 77.8776 50.628 78.1195 50.3378L97.2261 23.3466C97.468 23.0564 97.855 22.9597 98.1936 23.2015L100.08 24.6526L105.207 17.4453C105.449 17.1551 105.836 17.0584 106.175 17.3002L115.123 24.1206C115.414 24.3624 115.51 24.7978 115.269 25.088L102.305 43.3723L104.579 45.0653L105.014 44.4849C105.256 44.1946 105.643 44.0979 105.981 44.3397L122.718 57.0614C123.008 57.3032 123.105 57.7386 122.863 58.0288L122.428 58.6093L122.669 58.8027C122.96 58.9479 123.008 59.4316 122.766 59.7218Z" fill="black"/>
<path d="M77.8777 41.4858C77.6358 41.3891 77.4423 41.244 77.2005 41.1472C76.6684 40.857 76.1847 40.6151 75.6526 40.3733C74.8303 39.9863 74.008 39.5993 73.1857 39.2124C72.3634 38.8738 71.541 38.4868 70.7187 38.1966C69.8481 37.858 68.9774 37.5194 68.1551 37.2775C67.8165 37.1808 67.4779 37.0357 67.1393 36.9389C67.0425 36.8906 66.9458 36.8906 66.849 36.8422C66.5104 36.7454 66.2202 36.6487 65.8816 36.552C65.2528 36.3585 64.624 36.165 63.9951 36.0199C63.7049 35.9231 63.4147 35.8748 63.1245 35.778C62.7859 35.6813 62.3989 35.5845 62.0603 35.5362C61.9635 35.4878 61.8668 35.4878 61.7701 35.4878C61.3831 35.3911 61.0445 35.3427 60.6575 35.2459C60.3189 35.1492 59.9803 35.1008 59.6417 35.0525C57.5618 34.6655 55.5302 34.3753 53.4502 34.1818C52.6279 34.085 51.8056 34.0367 51.0316 33.9883C50.5963 33.9399 50.1126 33.9399 49.6772 33.9399C49.5321 33.9399 49.387 33.9399 49.1935 33.9399C48.9033 33.9399 48.6131 33.9399 48.3229 33.9399C48.0326 33.9399 47.7424 33.9399 47.5005 33.9399C47.3554 33.9399 47.2587 33.9399 47.1136 33.9399C46.9685 33.9399 46.8233 33.9399 46.6299 33.9399C46.388 33.9399 46.1461 33.9399 45.9043 33.9399C45.7108 33.9399 45.5657 33.9399 45.3722 33.9399C44.9852 33.9399 44.6466 33.9399 44.2597 33.9883C43.8243 33.9883 43.389 34.0367 42.9537 34.0367C42.5183 34.0367 42.1313 34.085 41.696 34.1334H41.6476C40.8737 34.1818 40.1481 34.2785 39.3742 34.3269C39.3258 34.3269 39.3258 34.3269 39.2774 34.3269H39.2291C38.8421 34.3753 38.4068 34.4236 38.0198 34.472C37.7779 34.5204 37.5361 34.5204 37.2942 34.5687C34.9724 34.859 32.699 35.2943 30.5222 35.778C29.8934 35.9231 29.313 36.0683 28.6841 36.2134C28.2972 36.3101 27.9102 36.4068 27.5716 36.5036C27.4749 36.552 27.3297 36.552 27.233 36.6003C26.846 36.6971 26.4107 36.7938 26.0237 36.9389C22.154 38.0031 18.4778 39.2607 14.9951 40.6151C14.9467 40.6635 14.85 40.6635 14.8016 40.7119C14.7532 40.7119 14.7049 40.7603 14.6565 40.7603C14.463 40.857 14.3179 40.9054 14.1244 41.0021C13.8825 41.0989 13.6891 41.1956 13.4472 41.2923C13.157 41.4375 12.8184 41.5342 12.5281 41.6793C11.7058 42.0179 10.8835 42.4049 10.1096 42.7435C9.67425 42.937 9.19053 43.1304 8.75519 43.3723C8.27148 43.6142 7.78777 43.856 7.30405 44.0979C6.91708 44.2914 6.53011 44.4848 6.14314 44.6783C5.80455 44.8234 5.46595 45.0169 5.17572 45.162C4.45015 45.549 3.72458 45.8876 3.04739 46.2746C2.8539 46.3713 2.66042 46.4681 2.46693 46.6132C2.27345 46.7099 2.07996 46.8067 1.88648 46.9034L0 57.7386C3.38599 55.9005 7.0622 54.0623 10.9803 52.321C11.6091 52.0308 12.2863 51.7405 12.9151 51.4987C17.3169 49.6122 22.0089 47.9192 26.8944 46.6132C27.4265 46.4681 27.9102 46.3229 28.4423 46.1778C31.6348 45.3555 34.8757 44.6783 38.2133 44.1946C38.8905 44.0979 39.5677 44.0011 40.1965 43.9528C42.9537 43.6142 45.7592 43.469 48.5163 43.4207C49.0484 43.4207 49.5805 43.4207 50.1126 43.4207C58.2873 43.6142 66.4621 45.3072 74.2498 49.2252L79.3772 42.3081C78.8935 42.0179 78.3614 41.7277 77.8777 41.4858Z" fill="#00007B"/>
<path d="M3.67627 35.0041L1.78979 46.7099C19.8806 36.7938 50.548 25.7652 79.3773 42.3565L84.8432 34.9557C53.2568 13.0435 20.316 25.6684 3.67627 35.0041Z" fill="#006B00"/>
<path d="M5.56275 23.5401L3.67627 34.9557C20.316 25.6201 53.2084 13.0435 84.8432 34.859L89.6803 28.3288C54.5628 -0.548773 19.0583 15.4621 5.56275 23.5401Z" fill="#F7931E"/>
<path d="M7.35248 12.5598L5.56274 23.5401C19.0583 15.4137 54.5628 -0.597134 89.6803 28.3289L94.8077 21.4118L94.9044 21.5085L94.9528 21.5569L95.0011 21.5085C93.9853 20.8313 59.4967 -19.9456 7.35248 12.5598Z" fill="#ED1C24"/>
<path d="M32.7472 25.5233L31.3928 24.4108L22.686 17.2035L6.91699 36.2618L9.43229 36.0199L10.9802 52.321C11.609 52.0308 12.2862 51.7405 12.915 51.4987L11.4639 35.8264L17.5103 28.5224L23.1214 21.702L37.2458 33.4079H37.1974L38.2132 44.1946C38.8904 44.0979 39.5676 44.0012 40.1964 43.9528L39.1806 33.2627L41.7443 33.0209L32.7472 25.5233Z" fill="white"/>
<path d="M51.2736 33.6013L49.242 33.7948L50.1611 43.4207C49.629 43.4207 49.0969 43.4207 48.5648 43.4207L47.6941 33.9883H47.7425L47.549 33.8432L36.6171 24.7978L34.6823 27.1196L32.6507 29.5865L30.7158 27.9903L32.7474 25.5233L34.1018 23.9271L36.3269 21.2667L38.7454 23.2983L51.2736 33.6013Z" fill="white"/>
</svg>
